<?xml version="1.0" standalone="no"?>
<!DOCTYPE svg PUBLIC "-//W3C//DTD SVG 20010904//EN"
 "http://www.w3.org/TR/2001/REC-SVG-20010904/DTD/svg10.dtd">
<svg version="1.0" xmlns="http://www.w3.org/2000/svg"
 width="1920.000000pt" height="1920.000000pt" viewBox="0 0 1920.000000 1920.000000"
 preserveAspectRatio="xMidYMid meet">

<g transform="translate(0.000000,1920.000000) scale(0.100000,-0.100000)"
fill="#000000" stroke="none">
<path d="M8760 15520 c-25 -5 -69 -9 -99 -9 -37 -1 -57 -6 -66 -17 -6 -9 -32
-18 -58 -21 -28 -3 -47 -11 -47 -18 0 -7 -18 -15 -39 -19 -21 -3 -41 -13 -45
-21 -3 -8 -17 -15 -31 -15 -14 0 -28 -7 -31 -15 -3 -8 -15 -17 -26 -21 -20 -6
-45 -24 -80 -56 -10 -10 -20 -18 -22 -18 -2 0 -22 -17 -44 -37 -22 -21 -63
-59 -91 -86 -28 -26 -51 -52 -51 -57 0 -6 -7 -10 -15 -10 -8 0 -15 -5 -15 -11
0 -5 -26 -36 -57 -68 -32 -32 -67 -71 -78 -86 -11 -15 -28 -35 -37 -44 -10 -8
-18 -20 -18 -25 0 -5 -7 -16 -15 -25 -47 -52 -55 -62 -55 -70 0 -7 -25 -39
-65 -82 -8 -9 -15 -20 -15 -26 0 -5 -9 -18 -20 -28 -11 -10 -20 -24 -20 -32 0
-7 -7 -16 -15 -19 -8 -4 -15 -11 -15 -16 0 -6 -11 -23 -25 -40 -14 -16 -25
-36 -25 -44 0 -8 -5 -14 -10 -14 -6 0 -15 -11 -20 -25 -5 -14 -14 -25 -19 -25
-5 0 -14 -13 -21 -30 -7 -16 -16 -30 -21 -30 -5 0 -9 -6 -9 -12 0 -7 -18 -39
-40 -71 -22 -31 -40 -60 -40 -64 0 -7 -49 -82 -60 -93 -3 -3 -11 -16 -18 -30
-7 -14 -31 -54 -53 -90 -22 -36 -47 -78 -55 -95 -8 -16 -26 -48 -39 -70 -22
-37 -40 -73 -49 -101 -3 -8 -89 -13 -273 -16 -222 -4 -273 -8 -293 -21 -14 -8
-52 -18 -85 -22 -33 -4 -69 -13 -80 -19 -11 -7 -39 -16 -63 -20 -24 -3 -53
-13 -65 -20 -12 -8 -38 -17 -58 -20 -21 -4 -42 -13 -49 -21 -7 -8 -25 -15 -40
-15 -15 0 -33 -6 -39 -14 -7 -8 -25 -18 -41 -21 -16 -3 -31 -12 -33 -20 -3 -7
-19 -16 -36 -20 -17 -4 -31 -13 -31 -21 0 -8 -5 -14 -11 -14 -13 0 -139 -126
-139 -139 0 -6 -6 -11 -14 -11 -8 0 -17 -14 -21 -31 -4 -17 -13 -33 -20 -35
-7 -3 -15 -18 -18 -33 -3 -16 -13 -36 -22 -44 -8 -9 -15 -25 -15 -36 0 -12 -9
-29 -20 -38 -11 -10 -20 -27 -20 -39 0 -12 -7 -27 -15 -34 -8 -7 -17 -28 -21
-49 -3 -20 -12 -46 -20 -58 -7 -12 -19 -55 -24 -95 -13 -85 -32 -108 -90 -108
-65 0 -139 -41 -212 -119 -38 -39 -68 -75 -68 -79 0 -5 -9 -19 -20 -32 -11
-13 -20 -31 -20 -40 0 -10 -7 -23 -15 -30 -8 -7 -20 -30 -25 -51 -6 -22 -15
-39 -20 -39 -6 0 -10 -6 -10 -13 0 -7 -9 -30 -19 -51 -11 -21 -23 -51 -26 -66
-3 -16 -13 -34 -21 -41 -8 -6 -14 -23 -14 -38 0 -15 -6 -36 -14 -47 -8 -11
-17 -38 -21 -60 -4 -21 -13 -49 -21 -61 -8 -12 -14 -31 -14 -41 0 -10 -8 -34
-19 -55 -10 -20 -22 -53 -26 -74 -4 -20 -13 -46 -21 -57 -8 -11 -14 -34 -14
-51 0 -17 -7 -40 -15 -52 -8 -12 -18 -43 -21 -70 -4 -26 -12 -55 -19 -63 -7
-8 -15 -34 -18 -58 -3 -24 -12 -51 -21 -61 -10 -11 -16 -36 -16 -63 0 -28 -6
-50 -15 -58 -17 -14 -21 -70 -5 -70 6 0 10 3 10 8 0 4 4 13 9 21 8 12 11 12
23 0 8 -8 13 -19 11 -26 -2 -6 12 -17 32 -23 31 -10 36 -16 32 -36 -2 -13 -1
-21 4 -19 4 3 14 -2 23 -10 8 -9 19 -14 23 -13 4 2 13 -13 19 -32 7 -19 15
-33 19 -32 12 6 24 -21 29 -65 3 -22 11 -53 17 -69 7 -16 13 -31 14 -34 1 -3
4 -12 8 -20 3 -8 8 -49 12 -90 8 -97 10 -108 17 -115 3 -4 -1 -34 -9 -68 -8
-34 -13 -81 -11 -104 2 -22 0 -39 -3 -38 -3 2 -4 -20 -1 -49 3 -38 0 -60 -12
-78 -12 -19 -15 -39 -10 -89 6 -70 7 -157 1 -204 -2 -16 1 -36 6 -42 5 -7 7
-20 3 -28 -3 -9 1 -31 8 -50 8 -18 12 -36 9 -39 -3 -3 0 -19 7 -36 9 -21 9
-34 2 -43 -6 -7 -7 -18 -2 -26 4 -8 6 -86 3 -175 -6 -193 -5 -226 6 -240 10
-12 8 -41 -4 -70 -5 -11 -8 -34 -8 -50 4 -109 0 -192 -9 -203 -6 -8 -11 -96
-13 -223 -4 -215 -11 -261 -53 -327 -7 -12 -12 -35 -11 -50 2 -17 -6 -45 -19
-66 -12 -21 -23 -55 -24 -76 -2 -22 -5 -37 -7 -35 -5 5 -36 -37 -36 -49 0 -4
-7 -12 -15 -17 -8 -5 -11 -10 -7 -10 4 0 3 -9 -3 -20 -8 -14 -7 -28 4 -53 7
-19 12 -46 9 -61 -4 -19 -1 -26 11 -26 9 0 16 -5 16 -10 0 -13 192 -205 213
-213 10 -4 17 -13 17 -22 0 -8 6 -15 14 -15 15 0 129 -85 134 -101 2 -5 10 -9
17 -9 7 0 36 -18 64 -40 28 -22 54 -40 59 -40 5 0 15 -7 22 -14 6 -8 71 -54
143 -103 73 -48 134 -90 137 -93 9 -9 131 -90 136 -90 9 0 78 -54 87 -67 4 -7
14 -13 21 -13 8 0 19 -7 26 -15 22 -27 28 -16 36 63 4 42 13 86 20 97 7 11 16
42 19 68 4 27 14 51 21 54 19 7 18 53 -1 53 -8 0 -17 -14 -21 -35 -5 -30 -10
-35 -34 -35 -15 0 -32 6 -38 13 -15 19 -52 179 -61 265 -5 42 -13 95 -20 117
-6 22 -15 94 -21 160 -5 66 -15 149 -21 185 -8 44 -12 240 -13 620 0 476 2
567 16 640 10 47 20 147 23 223 3 77 11 151 16 165 6 15 15 70 20 122 6 52 14
99 20 106 5 6 12 47 15 90 4 43 12 93 19 109 7 17 16 64 20 105 4 41 13 86 21
102 8 15 14 42 14 60 1 18 8 51 16 73 9 22 20 63 25 90 4 28 13 59 18 70 14
27 39 125 56 214 8 40 18 78 23 85 5 6 12 36 16 66 4 30 12 60 17 66 5 6 16
34 23 60 17 62 34 108 57 160 11 23 19 49 19 58 0 9 6 27 14 39 8 12 17 38 21
57 4 19 13 45 21 57 8 12 14 28 14 35 1 7 9 31 20 53 11 22 19 47 20 55 0 9 6
24 13 35 8 11 19 42 26 70 7 27 16 54 20 60 5 5 12 28 16 50 3 21 13 51 20 65
7 14 16 49 20 79 5 37 15 62 31 78 28 28 40 29 54 3 6 -11 17 -20 25 -20 8 0
15 -7 15 -15 0 -8 9 -15 19 -15 11 0 23 -9 26 -20 4 -12 15 -20 27 -20 12 0
29 -7 39 -16 27 -25 65 -10 89 34 11 20 35 55 53 78 18 23 49 65 70 95 20 30
48 70 62 89 14 19 28 43 31 53 4 9 13 17 20 17 8 0 17 7 20 15 4 8 12 15 19
15 7 0 16 7 19 16 3 9 12 14 20 11 12 -5 23 13 25 39 0 3 10 13 23 24 13 10
38 46 56 81 18 35 37 71 42 79 4 8 24 49 44 91 20 42 48 89 64 105 15 16 41
48 56 72 16 23 32 42 37 42 4 0 10 14 14 30 6 27 19 36 48 31 4 0 7 7 7 18 0
21 23 45 33 34 4 -3 7 -1 7 6 0 11 32 51 34 43 1 -2 14 1 29 7 16 6 34 11 41
11 7 0 24 9 37 21 13 12 35 30 48 40 22 18 23 20 7 37 -20 23 -20 32 -1 32 8
0 15 -7 15 -15 0 -8 6 -15 13 -15 8 0 27 -11 43 -25 16 -14 33 -25 38 -25 4 0
17 -11 28 -25 14 -19 23 -22 36 -15 9 5 49 23 87 41 39 17 88 39 111 50 22 10
46 19 52 19 7 0 12 4 12 10 0 5 12 13 28 16 23 6 72 28 122 56 8 4 26 13 40
18 14 6 32 15 40 20 8 6 22 13 30 16 8 3 40 17 70 31 30 14 71 32 90 41 19 8
51 23 71 34 20 10 43 18 52 18 8 0 20 6 26 14 7 8 27 17 45 20 19 4 39 13 46
21 7 8 20 15 29 15 9 0 33 9 54 20 20 11 45 20 56 20 10 0 24 6 30 14 7 8 27
18 44 21 18 4 39 13 47 20 8 7 31 16 50 20 19 4 44 14 55 21 11 8 26 14 35 14
8 1 33 9 55 20 22 11 49 19 60 20 11 0 30 7 42 15 11 8 40 17 64 21 24 4 53
13 64 20 11 6 47 15 80 19 33 4 69 12 79 17 22 12 260 34 506 48 187 10 810
13 834 4 21 -8 21 -67 1 -84 -8 -7 -15 -20 -15 -30 0 -9 -8 -28 -18 -41 -11
-13 -22 -36 -26 -51 -3 -16 -10 -28 -15 -28 -5 0 -12 -13 -16 -29 -3 -16 -13
-35 -21 -42 -8 -6 -14 -20 -14 -30 0 -11 -9 -28 -20 -39 -11 -11 -20 -27 -20
-35 0 -9 -6 -18 -14 -21 -8 -3 -17 -21 -20 -40 -4 -20 -13 -34 -21 -34 -8 0
-15 -9 -15 -20 0 -11 -9 -29 -20 -40 -11 -11 -20 -29 -20 -40 0 -11 -7 -23
-15 -26 -19 -8 -20 -54 -1 -54 7 0 16 -9 19 -20 5 -21 27 -28 27 -10 0 7 7 7
21 0 13 -7 40 -9 71 -5 30 4 53 3 57 -3 3 -5 21 -13 39 -17 24 -5 33 -3 38 9
3 9 16 16 29 16 35 0 85 -21 85 -36 0 -7 14 -23 30 -36 17 -12 30 -30 30 -39
0 -10 5 -19 11 -21 21 -7 14 -280 -10 -384 -11 -49 -29 -147 -41 -219 -11 -71
-25 -146 -30 -165 -5 -19 -17 -64 -26 -100 -9 -36 -22 -87 -30 -115 -7 -27
-22 -81 -32 -120 -11 -38 -42 -137 -69 -220 -71 -212 -83 -251 -83 -273 0 -11
-7 -25 -15 -32 -8 -7 -15 -20 -15 -30 0 -9 -9 -27 -20 -40 -13 -15 -17 -27
-11 -33 11 -11 31 -1 31 18 0 7 7 15 15 19 8 3 15 17 15 30 0 15 8 30 20 36
11 6 20 17 20 26 0 8 6 17 14 20 8 3 19 19 25 35 5 16 14 29 20 29 5 0 13 9
16 21 4 12 16 30 26 40 10 10 19 26 19 34 0 8 4 15 10 15 5 0 17 15 25 33 8
17 23 44 32 59 10 14 36 57 57 95 22 37 42 70 46 73 3 3 21 34 39 70 18 36 52
97 76 135 24 39 56 95 70 125 44 89 116 234 125 250 16 26 170 349 170 355 0
3 16 37 35 76 19 39 35 76 35 82 0 5 9 29 20 53 11 24 29 64 40 88 11 24 20
50 20 57 0 8 6 23 14 34 7 11 17 36 21 55 4 19 13 44 20 56 8 12 17 38 20 58
4 20 11 38 15 41 5 3 14 31 20 63 7 31 16 62 21 67 4 6 11 31 14 55 4 25 13
63 20 85 8 22 18 69 24 105 6 36 15 83 21 105 13 53 46 255 62 380 8 61 13
213 13 392 0 290 0 292 -22 313 -14 12 -23 33 -23 49 0 20 -6 30 -20 34 -11 3
-20 12 -20 21 0 9 -6 16 -14 16 -8 0 -16 6 -19 13 -3 9 -46 12 -183 10 -208
-2 -407 -23 -514 -54 -41 -12 -92 -23 -112 -26 -21 -3 -36 -8 -34 -12 2 -3
-10 -7 -27 -8 -50 -4 -80 -9 -106 -17 -18 -6 -21 -10 -10 -17 9 -6 3 -7 -17
-3 -23 4 -46 -2 -85 -22 -30 -15 -70 -31 -89 -35 -19 -4 -60 -14 -90 -22 -73
-20 -193 -14 -287 15 -40 12 -73 26 -73 30 0 4 -5 8 -11 8 -6 0 -37 16 -70 35
-68 40 -218 106 -453 201 -88 35 -170 69 -181 74 -11 5 -31 12 -45 15 -14 3
-41 12 -60 20 -66 25 -166 55 -186 55 -10 0 -32 7 -48 15 -15 8 -38 15 -50 15
-12 0 -46 7 -76 16 -30 9 -104 20 -165 24 -60 5 -132 10 -160 13 -27 3 -70 2
-95 -3z m2000 -2230 c0 -5 -7 -10 -15 -10 -8 0 -15 5 -15 10 0 6 7 10 15 10 8
0 15 -4 15 -10z"/>
<path d="M12603 14141 c5 -28 6 -58 2 -68 -10 -23 -12 -29 -14 -48 0 -8 -14
-30 -31 -48 -16 -19 -30 -38 -30 -42 0 -4 -13 -23 -30 -41 -16 -19 -39 -57
-51 -84 -12 -27 -25 -47 -30 -44 -5 3 -9 -1 -9 -9 0 -24 -41 -108 -55 -113 -7
-3 -15 -14 -18 -25 -5 -20 -52 -43 -68 -33 -5 3 -9 0 -9 -5 0 -6 8 -11 18 -11
15 -1 15 -2 -3 -13 -11 -6 -24 -12 -30 -12 -5 0 -8 -9 -7 -20 2 -11 0 -17 -4
-12 -15 14 -43 -44 -37 -79 4 -22 2 -34 -6 -34 -6 0 -11 -16 -11 -36 0 -20 -9
-53 -19 -73 -24 -44 -33 -80 -39 -146 -2 -17 -4 -18 -12 -5 -8 11 -10 6 -9
-20 0 -19 -3 -98 -7 -175 -10 -198 -7 -266 17 -322 32 -76 36 -86 49 -121 7
-18 10 -50 7 -72 -4 -29 -1 -40 8 -40 15 0 25 -22 25 -56 0 -24 16 -63 29 -74
12 -9 31 -87 31 -127 0 -27 6 -46 20 -58 16 -14 19 -28 16 -63 -2 -24 2 -56 9
-69 14 -26 14 -54 0 -52 -14 2 -23 -23 -18 -53 3 -22 -1 -36 -16 -49 -12 -11
-21 -28 -21 -37 0 -10 -5 -23 -12 -30 -9 -9 -9 -12 0 -12 7 0 12 5 12 10 0 6
8 10 17 10 13 0 14 3 5 12 -9 9 -3 19 23 44 19 18 35 42 35 53 0 12 7 21 15
21 8 0 15 9 15 20 0 11 9 29 20 40 11 11 20 25 20 31 0 6 9 22 20 36 11 14 20
34 20 43 0 10 7 23 15 30 8 7 20 30 25 51 6 22 15 39 19 39 5 0 12 17 16 38 4
20 12 44 20 52 7 8 15 31 19 51 4 21 13 42 21 49 8 7 15 23 15 36 0 13 9 41
20 61 11 21 20 51 20 68 0 16 7 43 15 58 8 15 17 61 21 101 8 94 14 105 47 83
23 -15 73 -109 139 -257 11 -25 28 -63 38 -85 52 -112 60 -133 60 -147 0 -9 7
-21 15 -28 8 -7 15 -19 15 -27 0 -8 8 -35 18 -61 32 -82 62 -176 62 -197 0
-11 7 -33 15 -49 8 -16 18 -54 22 -85 3 -31 12 -65 19 -76 6 -11 15 -49 19
-85 4 -36 13 -76 20 -90 7 -14 16 -63 20 -110 4 -46 11 -93 17 -104 6 -10 14
-80 19 -155 4 -75 14 -152 21 -171 19 -51 19 -855 0 -888 -8 -14 -16 -85 -22
-183 -4 -88 -13 -165 -18 -172 -6 -7 -14 -53 -18 -102 -3 -50 -12 -104 -19
-121 -7 -17 -16 -60 -20 -95 -4 -35 -13 -73 -19 -84 -7 -11 -16 -50 -19 -87
-3 -37 -13 -81 -22 -97 -8 -17 -15 -43 -15 -58 0 -16 -9 -54 -20 -86 -11 -31
-20 -68 -20 -82 0 -14 -6 -41 -14 -59 -7 -18 -17 -53 -21 -77 -4 -24 -13 -54
-21 -66 -8 -12 -14 -30 -14 -40 -1 -10 -8 -36 -16 -58 -16 -43 -35 -103 -59
-187 -8 -29 -19 -62 -24 -73 -6 -11 -14 -36 -20 -55 -5 -19 -21 -66 -36 -105
-14 -38 -30 -84 -36 -102 -5 -18 -16 -45 -24 -60 -8 -15 -15 -36 -15 -46 0
-11 -6 -33 -14 -50 -8 -18 -20 -51 -26 -74 -6 -23 -15 -45 -20 -48 -6 -3 -10
-16 -10 -28 0 -13 -9 -40 -20 -62 -11 -22 -20 -45 -20 -52 0 -8 -13 -13 -35
-13 -33 0 -34 -1 -23 -25 8 -17 8 -28 0 -37 -6 -7 -13 -35 -16 -62 -7 -61 -36
-156 -54 -176 -7 -8 -29 -33 -48 -55 -20 -22 -43 -52 -52 -67 -9 -16 -21 -28
-27 -28 -5 0 -34 -44 -64 -98 -30 -53 -66 -113 -81 -132 -30 -39 -70 -113 -70
-131 0 -6 -11 -24 -25 -41 -14 -17 -25 -42 -25 -59 0 -17 -5 -39 -10 -50 -7
-12 -7 -19 -1 -19 6 0 8 -6 5 -14 -3 -8 4 -24 16 -36 11 -11 18 -25 16 -29 -5
-7 40 -22 60 -20 4 0 10 -5 15 -12 4 -7 27 -13 51 -14 67 -1 118 -16 131 -36
7 -11 21 -19 31 -19 24 0 201 -44 241 -60 40 -16 147 -41 152 -36 3 3 12 -1
20 -9 8 -8 33 -15 56 -16 77 -1 127 -13 127 -30 0 -5 9 -9 20 -9 11 0 20 4 20
9 0 5 25 15 55 22 30 7 60 18 66 26 6 7 22 13 36 13 13 0 22 4 19 8 -2 4 23
21 57 37 34 17 64 33 65 38 2 4 10 7 18 7 12 0 35 13 115 65 8 5 32 21 52 33
20 13 37 28 37 33 0 5 9 9 20 9 11 0 20 5 20 12 0 9 86 98 96 98 13 0 56 57
60 80 5 24 -1 35 -41 72 -92 84 -170 167 -188 197 l-18 31 28 11 c21 8 47 7
101 -3 68 -13 80 -13 170 8 198 44 282 74 282 100 0 8 6 17 14 20 8 3 17 23
21 44 4 21 13 41 21 44 8 3 14 16 14 29 0 13 8 34 19 46 10 11 21 39 25 61 3
22 10 40 15 40 5 0 12 19 16 43 4 23 13 52 21 65 8 13 18 46 21 73 3 29 12 53
19 56 10 4 14 24 14 68 0 50 4 66 20 80 16 14 20 30 19 59 -3 64 0 76 17 76 8
0 12 5 9 10 -5 8 -11 8 -19 1 -21 -18 -36 9 -36 66 0 42 -5 57 -24 76 -14 14
-27 22 -30 19 -3 -3 -6 3 -6 13 0 10 -9 32 -19 49 -11 17 -22 48 -26 69 -4 20
-10 37 -14 37 -13 0 -40 103 -51 195 -7 50 -16 101 -22 115 -6 14 -13 93 -15
175 -6 224 -7 239 -17 254 -7 10 -6 12 4 6 10 -6 11 -4 4 6 -5 8 -9 45 -11 83
-1 38 -7 81 -12 95 -6 14 -13 49 -16 76 -3 28 -7 69 -9 92 -3 23 -9 51 -15 62
-6 11 -11 32 -11 47 0 29 -19 138 -28 164 -3 8 -6 18 -7 23 -2 4 -3 8 -5 10
-7 9 -20 90 -25 159 -2 32 -9 66 -14 76 -6 11 -8 32 -5 47 3 15 0 33 -6 40 -6
7 -10 26 -10 41 0 57 -9 141 -20 168 -5 15 -10 45 -10 67 0 22 -4 47 -10 57
-16 30 -27 130 -19 180 4 26 4 86 0 133 -3 48 -3 102 1 120 4 19 8 72 8 119
-1 89 4 154 19 255 5 33 16 115 23 182 8 67 19 127 24 135 15 20 37 116 29
128 -4 6 1 20 10 30 14 16 15 25 7 50 -9 25 -8 30 5 30 13 0 13 3 3 15 -7 8
-9 15 -6 15 4 0 2 10 -5 21 -8 17 -8 20 1 14 8 -5 11 -3 8 6 -3 8 4 29 14 47
10 18 18 39 18 46 0 7 9 25 21 40 12 15 31 44 43 65 23 43 114 127 152 141 13
5 24 14 24 20 0 6 4 9 9 6 5 -3 11 4 14 15 4 15 12 20 29 17 15 -2 24 3 26 15
2 12 -3 17 -17 17 -14 0 -21 6 -21 19 0 10 -9 21 -20 24 -11 3 -20 12 -20 21
0 9 -7 16 -15 16 -8 0 -15 5 -15 10 0 6 -72 82 -159 168 -148 146 -177 172
-240 219 -13 10 -31 26 -39 36 -9 9 -22 17 -30 17 -7 0 -15 7 -18 15 -4 8 -12
15 -19 15 -7 0 -30 14 -51 31 -22 17 -64 47 -94 67 -30 20 -56 40 -58 44 -2 4
-19 12 -38 18 -19 6 -34 16 -34 21 0 5 -5 9 -11 9 -7 0 -37 17 -68 38 -65 43
-87 56 -121 74 -14 7 -74 46 -134 86 -60 39 -118 72 -127 72 -10 0 -21 5 -24
10 -4 6 -21 17 -38 26 -50 24 -90 47 -124 72 -29 23 -31 28 -37 120 -4 53 -12
102 -17 109 -6 6 -14 50 -19 98 -5 48 -14 93 -20 100 -7 8 -14 42 -17 76 -4
35 -11 63 -18 66 -7 2 -16 24 -20 49 -3 24 -12 44 -18 44 -8 0 -7 3 2 9 11 7
11 10 0 17 -8 5 -23 10 -35 11 -20 3 -21 1 -11 -46z"/>
<path d="M6730 12000 c0 -11 7 -20 15 -20 13 0 14 4 5 20 -6 11 -13 20 -15 20
-3 0 -5 -9 -5 -20z"/>
<path d="M10765 11329 c-6 -19 0 -38 9 -28 10 12 16 49 7 49 -5 0 -13 -9 -16
-21z"/>
<path d="M10736 11281 c-4 -7 -5 -15 -2 -18 9 -9 19 4 14 18 -4 11 -6 11 -12
0z"/>
<path d="M10693 11220 c-6 -15 -7 -26 -1 -29 15 -5 20 5 16 31 l-5 23 -10 -25z"/>
<path d="M10654 11169 c-3 -6 -1 -16 5 -22 8 -8 11 -5 11 11 0 24 -5 28 -16
11z"/>
<path d="M10616 11095 c-3 -8 -1 -15 4 -15 6 0 10 7 10 15 0 8 -2 15 -4 15 -2
0 -6 -7 -10 -15z"/>
<path d="M7816 9155 c-3 -8 -12 -15 -21 -15 -8 0 -15 -7 -15 -15 0 -8 -9 -20
-20 -27 -11 -7 -20 -18 -20 -24 0 -10 -22 -39 -65 -85 -8 -9 -15 -21 -15 -27
0 -7 -4 -12 -10 -12 -5 0 -16 -12 -24 -27 -8 -16 -27 -42 -43 -58 -15 -17 -34
-42 -41 -55 -24 -47 -39 -70 -55 -88 -10 -10 -17 -23 -17 -29 0 -5 -9 -18 -20
-28 -11 -10 -20 -22 -20 -27 0 -4 -15 -30 -33 -56 -76 -109 -310 -528 -372
-667 -15 -33 -33 -74 -41 -92 -8 -17 -14 -34 -14 -38 0 -4 -9 -29 -21 -54 -12
-25 -30 -66 -42 -91 -11 -25 -26 -56 -32 -70 -7 -14 -16 -41 -19 -60 -4 -19
-13 -48 -20 -65 -19 -44 -56 -158 -56 -173 0 -8 -7 -28 -15 -45 -8 -18 -19
-50 -24 -72 -6 -22 -17 -67 -26 -100 -9 -33 -23 -82 -30 -110 -14 -51 -27
-122 -46 -255 -6 -41 -17 -98 -25 -127 -8 -29 -19 -96 -24 -150 -5 -54 -14
-127 -19 -163 -14 -88 -14 -335 0 -421 10 -56 18 -75 45 -103 19 -19 34 -40
34 -46 0 -5 5 -10 11 -10 6 0 25 -16 43 -35 19 -19 42 -35 53 -35 12 0 26 -6
32 -14 7 -8 26 -18 42 -21 16 -4 32 -12 36 -19 5 -8 22 -16 38 -19 68 -12 121
-38 143 -71 18 -27 22 -46 22 -112 0 -62 4 -85 20 -109 11 -16 20 -41 20 -55
1 -14 7 -36 15 -50 8 -14 14 -37 15 -52 0 -18 7 -29 20 -33 11 -3 20 -15 20
-25 0 -10 22 -40 49 -68 49 -48 52 -49 133 -60 54 -7 98 -7 124 -2 57 14 368
35 444 30 119 -7 204 -4 285 8 127 20 201 25 219 15 10 -5 59 -4 128 5 211 25
218 25 236 9 9 -8 48 -27 87 -42 38 -15 78 -33 90 -40 11 -7 51 -25 89 -40 63
-25 76 -27 140 -20 39 5 98 9 131 10 78 3 217 15 232 20 6 2 74 -5 150 -16
150 -20 236 -36 214 -38 -8 0 -11 -4 -7 -8 4 -4 41 -8 84 -10 42 -1 95 -7 117
-12 118 -29 207 -44 288 -50 5 -1 6 -5 2 -10 -9 -16 34 -33 91 -37 29 -2 65
-9 81 -15 l28 -12 -25 -7 c-14 -5 -40 -8 -58 -9 -18 -1 -43 -6 -55 -13 -21
-11 -21 -12 13 -19 45 -10 151 1 167 16 6 7 34 15 63 18 28 3 57 13 66 22 8 8
28 15 43 15 15 0 38 9 51 20 13 11 31 20 40 20 10 0 23 6 29 14 7 8 26 18 42
21 16 4 29 11 29 16 0 5 16 15 35 23 19 8 35 20 35 25 0 6 6 11 13 11 6 0 30
17 53 38 83 76 138 122 146 122 4 0 8 4 8 9 0 5 19 29 43 53 23 25 67 73 97
107 30 35 63 70 73 79 9 9 17 22 17 29 0 6 6 16 13 20 14 9 67 85 67 96 0 11
43 71 58 80 6 4 12 12 12 17 0 8 31 59 57 96 10 13 15 21 140 236 57 98 103
182 103 187 0 5 6 16 13 23 7 7 28 40 47 73 18 33 39 67 46 75 23 28 6 59 -40
71 -74 19 -182 61 -316 122 -99 45 -102 47 -142 70 -20 12 -62 37 -95 56 -32
18 -79 49 -106 67 -26 19 -49 34 -52 34 -3 0 -19 10 -35 22 -28 20 -33 21 -87
8 -32 -7 -69 -19 -83 -25 -14 -7 -45 -16 -70 -19 -25 -4 -54 -11 -65 -16 -32
-15 -136 -50 -180 -61 -21 -6 -44 -14 -50 -18 -5 -5 -30 -13 -55 -19 -44 -10
-114 -32 -175 -53 -16 -6 -55 -16 -85 -21 -30 -6 -60 -14 -66 -19 -11 -9 -115
-31 -234 -50 -36 -6 -94 -18 -130 -27 -59 -15 -186 -17 -1342 -20 -703 -1
-1292 1 -1310 6 -51 13 -47 41 20 183 33 68 62 131 66 139 3 8 24 47 46 85 22
39 56 102 76 140 19 39 47 90 61 115 14 25 39 72 56 105 17 33 33 62 36 65 4
3 12 16 19 30 31 59 46 85 52 90 4 3 15 19 24 35 9 17 25 44 36 60 11 17 26
45 34 63 8 17 20 32 25 32 6 0 11 4 11 9 0 13 129 205 141 209 5 2 9 8 9 12 0
5 25 46 55 90 30 44 55 84 55 89 0 4 11 21 25 37 36 41 41 47 55 75 7 13 16
26 19 29 6 5 29 39 56 81 27 44 51 75 62 82 7 4 13 14 13 22 0 8 6 18 13 22 6
4 26 28 42 53 17 25 35 50 42 55 6 6 22 26 35 45 12 19 43 62 68 95 41 53 59
80 95 133 6 8 25 31 42 51 18 20 33 41 33 48 0 6 15 27 33 46 32 34 40 44 78
105 12 17 25 32 30 32 5 0 9 7 9 15 0 8 9 19 20 25 11 6 20 17 20 24 0 8 7 19
15 26 8 7 15 21 15 31 0 20 -15 25 -25 9 -3 -5 -14 -10 -24 -10 -9 0 -35 -17
-57 -37 -22 -21 -65 -58 -94 -83 -29 -25 -71 -61 -94 -81 -112 -99 -149 -130
-174 -146 -15 -10 -38 -31 -51 -46 -13 -15 -26 -26 -28 -23 -2 2 -40 -19 -83
-47 -197 -131 -272 -171 -300 -162 -9 3 -23 -1 -30 -10 -15 -18 -30 -20 -30
-2 0 6 -18 23 -40 36 -38 24 -40 27 -36 66 7 70 18 139 24 150 4 5 7 30 8 55
2 44 20 277 29 372 2 30 -2 58 -11 78 -9 17 -13 38 -10 47 5 13 4 14 -9 3 -18
-15 -20 0 -2 19 10 11 10 13 0 7 -8 -5 -13 -1 -13 10 0 16 -1 16 -18 1 -24
-22 -32 -21 -32 1 0 24 -95 31 -104 7z"/>
<path d="M4740 8010 c0 -5 4 -10 9 -10 6 0 13 5 16 10 3 6 -1 10 -9 10 -9 0
-16 -4 -16 -10z"/>
<path d="M10230 4560 c31 -10 115 -10 155 0 19 5 -7 8 -75 8 -66 0 -96 -3 -80
-8z"/>
</g>
</svg>
